<svg xmlns="http://www.w3.org/2000/svg" width="900" height="52" viewBox="0 0 900 52" shape-rendering="crispEdges" role="img" aria-label="Python API"><style></style><rect width="900" height="52" fill="#1d1e21"/><rect width="900" height="4" fill="#8a8a8a"/><rect y="48" width="900" height="4" fill="#4a4a4a"/><rect width="4" height="52" fill="#8a8a8a"/><rect x="896" width="4" height="52" fill="#4a4a4a"/><rect x="20" y="18" width="16" height="16" fill="#d9a441"/><rect x="20" y="18" width="16" height="3" fill="#f3d089"/><rect x="20" y="31" width="16" height="3" fill="#9a7428"/><path fill="#000000" d="M54 16h12v3h-12zM54 19h3v3h-3zM66 19h3v3h-3zM54 22h3v3h-3zM66 22h3v3h-3zM54 25h12v3h-12zM54 28h3v3h-3zM54 31h3v3h-3zM54 34h3v3h-3zM72 16h3v3h-3zM84 16h3v3h-3zM72 19h3v3h-3zM84 19h3v3h-3zM75 22h3v3h-3zM81 22h3v3h-3zM78 25h3v3h-3zM78 28h3v3h-3zM78 31h3v3h-3zM78 34h3v3h-3zM90 16h15v3h-15zM96 19h3v3h-3zM96 22h3v3h-3zM96 25h3v3h-3zM96 28h3v3h-3zM96 31h3v3h-3zM96 34h3v3h-3zM108 16h3v3h-3zM120 16h3v3h-3zM108 19h3v3h-3zM120 19h3v3h-3zM108 22h3v3h-3zM120 22h3v3h-3zM108 25h15v3h-15zM108 28h3v3h-3zM120 28h3v3h-3zM108 31h3v3h-3zM120 31h3v3h-3zM108 34h3v3h-3zM120 34h3v3h-3zM129 16h9v3h-9zM126 19h3v3h-3zM138 19h3v3h-3zM126 22h3v3h-3zM138 22h3v3h-3zM126 25h3v3h-3zM138 25h3v3h-3zM126 28h3v3h-3zM138 28h3v3h-3zM126 31h3v3h-3zM138 31h3v3h-3zM129 34h9v3h-9zM144 16h3v3h-3zM156 16h3v3h-3zM144 19h6v3h-6zM156 19h3v3h-3zM144 22h3v3h-3zM150 22h3v3h-3zM156 22h3v3h-3zM144 25h3v3h-3zM153 25h6v3h-6zM144 28h3v3h-3zM156 28h3v3h-3zM144 31h3v3h-3zM156 31h3v3h-3zM144 34h3v3h-3zM156 34h3v3h-3zM174 16h9v3h-9zM171 19h3v3h-3zM183 19h3v3h-3zM171 22h3v3h-3zM183 22h3v3h-3zM171 25h15v3h-15zM171 28h3v3h-3zM183 28h3v3h-3zM171 31h3v3h-3zM183 31h3v3h-3zM171 34h3v3h-3zM183 34h3v3h-3zM189 16h12v3h-12zM189 19h3v3h-3zM201 19h3v3h-3zM189 22h3v3h-3zM201 22h3v3h-3zM189 25h12v3h-12zM189 28h3v3h-3zM189 31h3v3h-3zM189 34h3v3h-3zM207 16h15v3h-15zM213 19h3v3h-3zM213 22h3v3h-3zM213 25h3v3h-3zM213 28h3v3h-3zM213 31h3v3h-3zM207 34h15v3h-15z"/><path fill="#ececec" d="M52 14h12v3h-12zM52 17h3v3h-3zM64 17h3v3h-3zM52 20h3v3h-3zM64 20h3v3h-3zM52 23h12v3h-12zM52 26h3v3h-3zM52 29h3v3h-3zM52 32h3v3h-3zM70 14h3v3h-3zM82 14h3v3h-3zM70 17h3v3h-3zM82 17h3v3h-3zM73 20h3v3h-3zM79 20h3v3h-3zM76 23h3v3h-3zM76 26h3v3h-3zM76 29h3v3h-3zM76 32h3v3h-3zM88 14h15v3h-15zM94 17h3v3h-3zM94 20h3v3h-3zM94 23h3v3h-3zM94 26h3v3h-3zM94 29h3v3h-3zM94 32h3v3h-3zM106 14h3v3h-3zM118 14h3v3h-3zM106 17h3v3h-3zM118 17h3v3h-3zM106 20h3v3h-3zM118 20h3v3h-3zM106 23h15v3h-15zM106 26h3v3h-3zM118 26h3v3h-3zM106 29h3v3h-3zM118 29h3v3h-3zM106 32h3v3h-3zM118 32h3v3h-3zM127 14h9v3h-9zM124 17h3v3h-3zM136 17h3v3h-3zM124 20h3v3h-3zM136 20h3v3h-3zM124 23h3v3h-3zM136 23h3v3h-3zM124 26h3v3h-3zM136 26h3v3h-3zM124 29h3v3h-3zM136 29h3v3h-3zM127 32h9v3h-9zM142 14h3v3h-3zM154 14h3v3h-3zM142 17h6v3h-6zM154 17h3v3h-3zM142 20h3v3h-3zM148 20h3v3h-3zM154 20h3v3h-3zM142 23h3v3h-3zM151 23h6v3h-6zM142 26h3v3h-3zM154 26h3v3h-3zM142 29h3v3h-3zM154 29h3v3h-3zM142 32h3v3h-3zM154 32h3v3h-3zM172 14h9v3h-9zM169 17h3v3h-3zM181 17h3v3h-3zM169 20h3v3h-3zM181 20h3v3h-3zM169 23h15v3h-15zM169 26h3v3h-3zM181 26h3v3h-3zM169 29h3v3h-3zM181 29h3v3h-3zM169 32h3v3h-3zM181 32h3v3h-3zM187 14h12v3h-12zM187 17h3v3h-3zM199 17h3v3h-3zM187 20h3v3h-3zM199 20h3v3h-3zM187 23h12v3h-12zM187 26h3v3h-3zM187 29h3v3h-3zM187 32h3v3h-3zM205 14h15v3h-15zM211 17h3v3h-3zM211 20h3v3h-3zM211 23h3v3h-3zM211 26h3v3h-3zM211 29h3v3h-3zM205 32h15v3h-15z"/></svg>