<svg xmlns="http://www.w3.org/2000/svg" width="900" height="214" viewBox="0 0 900 214" shape-rendering="crispEdges" role="img" aria-label="Production-grade AI model optimization for any neural network. Compress, quantize, prune and deploy LLMs, Transformers and CNNs to laptop, cloud, mobile or edge in one command."><style></style><rect width="900" height="214" fill="#151618"/><rect x="1" y="1" width="898" height="212" fill="none" stroke="#3a3b3f" stroke-width="2"/><rect x="24" y="24" width="84" height="84" fill="#2a2b2e"/><rect x="24" y="24" width="84" height="3" fill="#0e0e10"/><rect x="24" y="24" width="3" height="84" fill="#0e0e10"/><rect x="24" y="105" width="84" height="3" fill="#5a5b60"/><rect x="105" y="24" width="3" height="84" fill="#5a5b60"/><path fill="#ffcb50" d="M42 34h8v8h-8zM50 34h8v8h-8zM58 34h8v8h-8zM66 34h8v8h-8zM34 42h8v8h-8zM74 42h8v8h-8zM82 50h8v8h-8zM90 58h8v8h-8z"/><path fill="#636363" d="M66 42h8v8h-8zM66 50h8v8h-8zM74 50h8v8h-8zM58 58h8v8h-8zM66 58h8v8h-8zM50 66h8v8h-8zM58 66h8v8h-8zM42 74h8v8h-8zM50 74h8v8h-8zM34 82h8v8h-8zM42 82h8v8h-8zM34 90h8v8h-8z"/><text x="128" y="46" font-size="15" fill="#d4d4d4" font-family="'DejaVu Sans Mono',Consolas,'Courier New',monospace">Production-grade AI model optimization for any neural network. Compress,</text><text x="128" y="70" font-size="15" fill="#d4d4d4" font-family="'DejaVu Sans Mono',Consolas,'Courier New',monospace">quantize, prune and deploy LLMs, Transformers and CNNs to laptop, cloud,</text><text x="128" y="94" font-size="15" fill="#d4d4d4" font-family="'DejaVu Sans Mono',Consolas,'Courier New',monospace">mobile or edge in one command.</text><rect x="128" y="130" width="106" height="26" fill="#202124" stroke="#4a4a4a" stroke-width="2"/><rect x="128" y="130" width="106" height="3" fill="#6a6a6a"/><text x="139" y="148" font-size="12" fill="#b8b8b8" font-family="'DejaVu Sans Mono',Consolas,'Courier New',monospace">Python 3.9+</text><rect x="241.6" y="130" width="113" height="26" fill="#202124" stroke="#4a4a4a" stroke-width="2"/><rect x="241.6" y="130" width="113" height="3" fill="#6a6a6a"/><text x="252.6" y="148" font-size="12" fill="#b8b8b8" font-family="'DejaVu Sans Mono',Consolas,'Courier New',monospace">PyTorch 2.0+</text><rect x="362.79999999999995" y="130" width="75" height="26" fill="#202124" stroke="#4a4a4a" stroke-width="2"/><rect x="362.79999999999995" y="130" width="75" height="3" fill="#6a6a6a"/><text x="373.79999999999995" y="148" font-size="12" fill="#b8b8b8" font-family="'DejaVu Sans Mono',Consolas,'Courier New',monospace">FastAPI</text><rect x="445.99999999999994" y="130" width="52" height="26" fill="#202124" stroke="#4a4a4a" stroke-width="2"/><rect x="445.99999999999994" y="130" width="52" height="3" fill="#6a6a6a"/><text x="456.99999999999994" y="148" font-size="12" fill="#b8b8b8" font-family="'DejaVu Sans Mono',Consolas,'Courier New',monospace">ONNX</text><rect x="506.3999999999999" y="130" width="83" height="26" fill="#202124" stroke="#4a4a4a" stroke-width="2"/><rect x="506.3999999999999" y="130" width="83" height="3" fill="#6a6a6a"/><text x="517.3999999999999" y="148" font-size="12" fill="#b8b8b8" font-family="'DejaVu Sans Mono',Consolas,'Courier New',monospace">TensorRT</text><rect x="597.1999999999999" y="130" width="52" height="26" fill="#202124" stroke="#4a4a4a" stroke-width="2"/><rect x="597.1999999999999" y="130" width="52" height="3" fill="#6a6a6a"/><text x="608.1999999999999" y="148" font-size="12" fill="#b8b8b8" font-family="'DejaVu Sans Mono',Consolas,'Courier New',monospace">GGUF</text><rect x="657.5999999999999" y="130" width="128" height="26" fill="#202124" stroke="#d9a441" stroke-width="2"/><rect x="657.5999999999999" y="130" width="128" height="3" fill="#d9a441"/><text x="668.5999999999999" y="148" font-size="12" fill="#d9a441" font-family="'DejaVu Sans Mono',Consolas,'Courier New',monospace">3x-10x smaller</text><rect x="128" y="164" width="113" height="26" fill="#202124" stroke="#d9a441" stroke-width="2"/><rect x="128" y="164" width="113" height="3" fill="#d9a441"/><text x="139" y="182" font-size="12" fill="#d9a441" font-family="'DejaVu Sans Mono',Consolas,'Courier New',monospace">2x-5x faster</text><g id="vines"><rect x="18" y="0" width="6" height="6" fill="#4a7a3c"/><rect x="36" y="0" width="6" height="6" fill="#2f5229"/><rect x="60" y="0" width="6" height="6" fill="#4a7a3c"/><rect x="90" y="0" width="6" height="6" fill="#4a7a3c"/><rect x="96" y="0" width="6" height="6" fill="#4a7a3c"/><rect x="222" y="0" width="6" height="6" fill="#2f5229"/><rect x="234" y="0" width="6" height="6" fill="#4a7a3c"/><rect x="312" y="0" width="6" height="6" fill="#2f5229"/><rect x="408" y="0" width="6" height="6" fill="#4a7a3c"/><rect x="414" y="0" width="6" height="6" fill="#2f5229"/><rect x="492" y="0" width="6" height="6" fill="#2f5229"/><rect x="552" y="0" width="6" height="6" fill="#2f5229"/><rect x="612" y="0" width="6" height="6" fill="#2f5229"/><rect x="618" y="0" width="6" height="6" fill="#4a7a3c"/><rect x="636" y="0" width="6" height="6" fill="#2f5229"/><rect x="660" y="0" width="6" height="6" fill="#2f5229"/><rect x="726" y="0" width="6" height="6" fill="#4a7a3c"/><rect x="744" y="0" width="6" height="6" fill="#4a7a3c"/><rect x="846" y="0" width="6" height="6" fill="#4a7a3c"/><rect x="864" y="0" width="6" height="6" fill="#4a7a3c"/><rect x="876" y="0" width="6" height="6" fill="#2f5229"/><rect x="894" y="0" width="6" height="6" fill="#4a7a3c"/><rect x="18" y="6" width="6" height="6" fill="#2f5229"/><rect x="60" y="6" width="6" height="6" fill="#69a04f"/><rect x="66" y="6" width="6" height="6" fill="#4a7a3c"/><rect x="90" y="6" width="6" height="6" fill="#69a04f"/><rect x="96" y="6" width="6" height="6" fill="#2f5229"/><rect x="234" y="6" width="6" height="6" fill="#2f5229"/><rect x="408" y="6" width="6" height="6" fill="#69a04f"/><rect x="618" y="6" width="6" height="6" fill="#2f5229"/><rect x="726" y="6" width="6" height="6" fill="#69a04f"/><rect x="744" y="6" width="6" height="6" fill="#2f5229"/><rect x="846" y="6" width="6" height="6" fill="#69a04f"/><rect x="864" y="6" width="6" height="6" fill="#2f5229"/><rect x="888" y="6" width="6" height="6" fill="#69a04f"/><rect x="894" y="6" width="6" height="6" fill="#2f5229"/><rect x="60" y="12" width="6" height="6" fill="#4a7a3c"/><rect x="66" y="12" width="6" height="6" fill="#2f5229"/><rect x="90" y="12" width="6" height="6" fill="#2f5229"/><rect x="96" y="12" width="6" height="6" fill="#4a7a3c"/><rect x="102" y="12" width="6" height="6" fill="#2f5229"/><rect x="408" y="12" width="6" height="6" fill="#2f5229"/><rect x="726" y="12" width="6" height="6" fill="#2f5229"/><rect x="846" y="12" width="6" height="6" fill="#4a7a3c"/><rect x="882" y="12" width="6" height="6" fill="#2f5229"/><rect x="888" y="12" width="6" height="6" fill="#4a7a3c"/><rect x="894" y="12" width="6" height="6" fill="#4a7a3c"/><rect x="60" y="18" width="6" height="6" fill="#4a7a3c"/><rect x="96" y="18" width="6" height="6" fill="#2f5229"/><rect x="846" y="18" width="6" height="6" fill="#2f5229"/><rect x="888" y="18" width="6" height="6" fill="#2f5229"/><rect x="894" y="18" width="6" height="6" fill="#4a7a3c"/><rect x="12" y="24" width="6" height="6" fill="#4a7a3c"/><rect x="60" y="24" width="6" height="6" fill="#2f5229"/><rect x="888" y="24" width="6" height="6" fill="#4a7a3c"/><rect x="894" y="24" width="6" height="6" fill="#69a04f"/><rect x="12" y="30" width="6" height="6" fill="#69a04f"/><rect x="18" y="30" width="6" height="6" fill="#69a04f"/><rect x="24" y="30" width="6" height="6" fill="#2f5229"/><rect x="882" y="30" width="6" height="6" fill="#2f5229"/><rect x="888" y="30" width="6" height="6" fill="#69a04f"/><rect x="894" y="30" width="6" height="6" fill="#4a7a3c"/><rect x="6" y="36" width="6" height="6" fill="#4a7a3c"/><rect x="12" y="36" width="6" height="6" fill="#4a7a3c"/><rect x="18" y="36" width="6" height="6" fill="#69a04f"/><rect x="24" y="36" width="6" height="6" fill="#2f5229"/><rect x="882" y="36" width="6" height="6" fill="#4a7a3c"/><rect x="888" y="36" width="6" height="6" fill="#4a7a3c"/><rect x="894" y="36" width="6" height="6" fill="#4a7a3c"/><rect x="6" y="42" width="6" height="6" fill="#69a04f"/><rect x="12" y="42" width="6" height="6" fill="#4a7a3c"/><rect x="18" y="42" width="6" height="6" fill="#4a7a3c"/><rect x="882" y="42" width="6" height="6" fill="#2f5229"/><rect x="888" y="42" width="6" height="6" fill="#4a7a3c"/><rect x="894" y="42" width="6" height="6" fill="#69a04f"/><rect x="6" y="48" width="6" height="6" fill="#4a7a3c"/><rect x="12" y="48" width="6" height="6" fill="#2f5229"/><rect x="876" y="48" width="6" height="6" fill="#2f5229"/><rect x="882" y="48" width="6" height="6" fill="#69a04f"/><rect x="888" y="48" width="6" height="6" fill="#69a04f"/><rect x="894" y="48" width="6" height="6" fill="#4a7a3c"/><rect x="6" y="54" width="6" height="6" fill="#4a7a3c"/><rect x="876" y="54" width="6" height="6" fill="#4a7a3c"/><rect x="882" y="54" width="6" height="6" fill="#4a7a3c"/><rect x="888" y="54" width="6" height="6" fill="#2f5229"/><rect x="894" y="54" width="6" height="6" fill="#4a7a3c"/><rect x="6" y="60" width="6" height="6" fill="#69a04f"/><rect x="876" y="60" width="6" height="6" fill="#69a04f"/><rect x="882" y="60" width="6" height="6" fill="#4a7a3c"/><rect x="888" y="60" width="6" height="6" fill="#4a7a3c"/><rect x="894" y="60" width="6" height="6" fill="#69a04f"/><rect x="6" y="66" width="6" height="6" fill="#4a7a3c"/><rect x="12" y="66" width="6" height="6" fill="#4a7a3c"/><rect x="882" y="66" width="6" height="6" fill="#2f5229"/><rect x="888" y="66" width="6" height="6" fill="#4a7a3c"/><rect x="894" y="66" width="6" height="6" fill="#4a7a3c"/><rect x="6" y="72" width="6" height="6" fill="#4a7a3c"/><rect x="12" y="72" width="6" height="6" fill="#2f5229"/><rect x="888" y="72" width="6" height="6" fill="#69a04f"/><rect x="894" y="72" width="6" height="6" fill="#4a7a3c"/><rect x="6" y="78" width="6" height="6" fill="#69a04f"/><rect x="12" y="78" width="6" height="6" fill="#69a04f"/><rect x="882" y="78" width="6" height="6" fill="#2f5229"/><rect x="888" y="78" width="6" height="6" fill="#69a04f"/><rect x="894" y="78" width="6" height="6" fill="#69a04f"/><rect x="6" y="84" width="6" height="6" fill="#4a7a3c"/><rect x="888" y="84" width="6" height="6" fill="#2f5229"/><rect x="894" y="84" width="6" height="6" fill="#2f5229"/><rect x="6" y="90" width="6" height="6" fill="#4a7a3c"/><rect x="894" y="90" width="6" height="6" fill="#69a04f"/><rect x="6" y="96" width="6" height="6" fill="#69a04f"/><rect x="12" y="96" width="6" height="6" fill="#4a7a3c"/><rect x="894" y="96" width="6" height="6" fill="#4a7a3c"/><rect x="6" y="102" width="6" height="6" fill="#4a7a3c"/><rect x="12" y="102" width="6" height="6" fill="#4a7a3c"/><rect x="888" y="102" width="6" height="6" fill="#2f5229"/><rect x="894" y="102" width="6" height="6" fill="#4a7a3c"/><rect x="6" y="108" width="6" height="6" fill="#4a7a3c"/><rect x="12" y="108" width="6" height="6" fill="#2f5229"/><rect x="18" y="108" width="6" height="6" fill="#2f5229"/><rect x="888" y="108" width="6" height="6" fill="#2f5229"/><rect x="894" y="108" width="6" height="6" fill="#69a04f"/><rect x="6" y="114" width="6" height="6" fill="#69a04f"/><rect x="12" y="114" width="6" height="6" fill="#2f5229"/><rect x="888" y="114" width="6" height="6" fill="#2f5229"/><rect x="894" y="114" width="6" height="6" fill="#4a7a3c"/><rect x="6" y="120" width="6" height="6" fill="#4a7a3c"/><rect x="894" y="120" width="6" height="6" fill="#4a7a3c"/><rect x="6" y="126" width="6" height="6" fill="#2f5229"/><rect x="894" y="126" width="6" height="6" fill="#2f5229"/><rect x="36" y="190" width="6" height="6" fill="#2f5229"/><rect x="870" y="190" width="6" height="6" fill="#4a7a3c"/><rect x="36" y="196" width="6" height="6" fill="#4a7a3c"/><rect x="870" y="196" width="6" height="6" fill="#4a7a3c"/><rect x="30" y="202" width="6" height="6" fill="#2f5229"/><rect x="36" y="202" width="6" height="6" fill="#2f5229"/><rect x="42" y="202" width="6" height="6" fill="#69a04f"/><rect x="864" y="202" width="6" height="6" fill="#4a7a3c"/><rect x="870" y="202" width="6" height="6" fill="#4a7a3c"/><rect x="876" y="202" width="6" height="6" fill="#2f5229"/><rect x="30" y="208" width="6" height="6" fill="#2f5229"/><rect x="36" y="208" width="6" height="6" fill="#2f5229"/><rect x="42" y="208" width="6" height="6" fill="#2f5229"/><rect x="864" y="208" width="6" height="6" fill="#2f5229"/><rect x="870" y="208" width="6" height="6" fill="#2f5229"/><rect x="876" y="208" width="6" height="6" fill="#2f5229"/></g></svg>