<svg xmlns="http://www.w3.org/2000/svg" width="900" height="52" viewBox="0 0 900 52" shape-rendering="crispEdges" role="img" aria-label="Performance targets"><style></style><rect width="900" height="52" fill="#1d1e21"/><rect width="900" height="4" fill="#8a8a8a"/><rect y="48" width="900" height="4" fill="#4a4a4a"/><rect width="4" height="52" fill="#8a8a8a"/><rect x="896" width="4" height="52" fill="#4a4a4a"/><rect x="20" y="18" width="16" height="16" fill="#d9a441"/><rect x="20" y="18" width="16" height="3" fill="#f3d089"/><rect x="20" y="31" width="16" height="3" fill="#9a7428"/><path fill="#000000" d="M54 16h12v3h-12zM54 19h3v3h-3zM66 19h3v3h-3zM54 22h3v3h-3zM66 22h3v3h-3zM54 25h12v3h-12zM54 28h3v3h-3zM54 31h3v3h-3zM54 34h3v3h-3zM72 16h15v3h-15zM72 19h3v3h-3zM72 22h3v3h-3zM72 25h12v3h-12zM72 28h3v3h-3zM72 31h3v3h-3zM72 34h15v3h-15zM90 16h12v3h-12zM90 19h3v3h-3zM102 19h3v3h-3zM90 22h3v3h-3zM102 22h3v3h-3zM90 25h12v3h-12zM90 28h3v3h-3zM96 28h3v3h-3zM90 31h3v3h-3zM99 31h3v3h-3zM90 34h3v3h-3zM102 34h3v3h-3zM108 16h15v3h-15zM108 19h3v3h-3zM108 22h3v3h-3zM108 25h12v3h-12zM108 28h3v3h-3zM108 31h3v3h-3zM108 34h3v3h-3zM129 16h9v3h-9zM126 19h3v3h-3zM138 19h3v3h-3zM126 22h3v3h-3zM138 22h3v3h-3zM126 25h3v3h-3zM138 25h3v3h-3zM126 28h3v3h-3zM138 28h3v3h-3zM126 31h3v3h-3zM138 31h3v3h-3zM129 34h9v3h-9zM144 16h12v3h-12zM144 19h3v3h-3zM156 19h3v3h-3zM144 22h3v3h-3zM156 22h3v3h-3zM144 25h12v3h-12zM144 28h3v3h-3zM150 28h3v3h-3zM144 31h3v3h-3zM153 31h3v3h-3zM144 34h3v3h-3zM156 34h3v3h-3zM162 16h3v3h-3zM174 16h3v3h-3zM162 19h6v3h-6zM171 19h6v3h-6zM162 22h3v3h-3zM168 22h3v3h-3zM174 22h3v3h-3zM162 25h3v3h-3zM168 25h3v3h-3zM174 25h3v3h-3zM162 28h3v3h-3zM174 28h3v3h-3zM162 31h3v3h-3zM174 31h3v3h-3zM162 34h3v3h-3zM174 34h3v3h-3zM183 16h9v3h-9zM180 19h3v3h-3zM192 19h3v3h-3zM180 22h3v3h-3zM192 22h3v3h-3zM180 25h15v3h-15zM180 28h3v3h-3zM192 28h3v3h-3zM180 31h3v3h-3zM192 31h3v3h-3zM180 34h3v3h-3zM192 34h3v3h-3zM198 16h3v3h-3zM210 16h3v3h-3zM198 19h6v3h-6zM210 19h3v3h-3zM198 22h3v3h-3zM204 22h3v3h-3zM210 22h3v3h-3zM198 25h3v3h-3zM207 25h6v3h-6zM198 28h3v3h-3zM210 28h3v3h-3zM198 31h3v3h-3zM210 31h3v3h-3zM198 34h3v3h-3zM210 34h3v3h-3zM219 16h12v3h-12zM216 19h3v3h-3zM216 22h3v3h-3zM216 25h3v3h-3zM216 28h3v3h-3zM216 31h3v3h-3zM219 34h12v3h-12zM234 16h15v3h-15zM234 19h3v3h-3zM234 22h3v3h-3zM234 25h12v3h-12zM234 28h3v3h-3zM234 31h3v3h-3zM234 34h15v3h-15zM261 16h15v3h-15zM267 19h3v3h-3zM267 22h3v3h-3zM267 25h3v3h-3zM267 28h3v3h-3zM267 31h3v3h-3zM267 34h3v3h-3zM282 16h9v3h-9zM279 19h3v3h-3zM291 19h3v3h-3zM279 22h3v3h-3zM291 22h3v3h-3zM279 25h15v3h-15zM279 28h3v3h-3zM291 28h3v3h-3zM279 31h3v3h-3zM291 31h3v3h-3zM279 34h3v3h-3zM291 34h3v3h-3zM297 16h12v3h-12zM297 19h3v3h-3zM309 19h3v3h-3zM297 22h3v3h-3zM309 22h3v3h-3zM297 25h12v3h-12zM297 28h3v3h-3zM303 28h3v3h-3zM297 31h3v3h-3zM306 31h3v3h-3zM297 34h3v3h-3zM309 34h3v3h-3zM318 16h12v3h-12zM315 19h3v3h-3zM315 22h3v3h-3zM315 25h3v3h-3zM324 25h6v3h-6zM315 28h3v3h-3zM327 28h3v3h-3zM315 31h3v3h-3zM327 31h3v3h-3zM318 34h9v3h-9zM333 16h15v3h-15zM333 19h3v3h-3zM333 22h3v3h-3zM333 25h12v3h-12zM333 28h3v3h-3zM333 31h3v3h-3zM333 34h15v3h-15zM351 16h15v3h-15zM357 19h3v3h-3zM357 22h3v3h-3zM357 25h3v3h-3zM357 28h3v3h-3zM357 31h3v3h-3zM357 34h3v3h-3zM372 16h12v3h-12zM369 19h3v3h-3zM369 22h3v3h-3zM372 25h9v3h-9zM381 28h3v3h-3zM381 31h3v3h-3zM369 34h12v3h-12z"/><path fill="#ececec" d="M52 14h12v3h-12zM52 17h3v3h-3zM64 17h3v3h-3zM52 20h3v3h-3zM64 20h3v3h-3zM52 23h12v3h-12zM52 26h3v3h-3zM52 29h3v3h-3zM52 32h3v3h-3zM70 14h15v3h-15zM70 17h3v3h-3zM70 20h3v3h-3zM70 23h12v3h-12zM70 26h3v3h-3zM70 29h3v3h-3zM70 32h15v3h-15zM88 14h12v3h-12zM88 17h3v3h-3zM100 17h3v3h-3zM88 20h3v3h-3zM100 20h3v3h-3zM88 23h12v3h-12zM88 26h3v3h-3zM94 26h3v3h-3zM88 29h3v3h-3zM97 29h3v3h-3zM88 32h3v3h-3zM100 32h3v3h-3zM106 14h15v3h-15zM106 17h3v3h-3zM106 20h3v3h-3zM106 23h12v3h-12zM106 26h3v3h-3zM106 29h3v3h-3zM106 32h3v3h-3zM127 14h9v3h-9zM124 17h3v3h-3zM136 17h3v3h-3zM124 20h3v3h-3zM136 20h3v3h-3zM124 23h3v3h-3zM136 23h3v3h-3zM124 26h3v3h-3zM136 26h3v3h-3zM124 29h3v3h-3zM136 29h3v3h-3zM127 32h9v3h-9zM142 14h12v3h-12zM142 17h3v3h-3zM154 17h3v3h-3zM142 20h3v3h-3zM154 20h3v3h-3zM142 23h12v3h-12zM142 26h3v3h-3zM148 26h3v3h-3zM142 29h3v3h-3zM151 29h3v3h-3zM142 32h3v3h-3zM154 32h3v3h-3zM160 14h3v3h-3zM172 14h3v3h-3zM160 17h6v3h-6zM169 17h6v3h-6zM160 20h3v3h-3zM166 20h3v3h-3zM172 20h3v3h-3zM160 23h3v3h-3zM166 23h3v3h-3zM172 23h3v3h-3zM160 26h3v3h-3zM172 26h3v3h-3zM160 29h3v3h-3zM172 29h3v3h-3zM160 32h3v3h-3zM172 32h3v3h-3zM181 14h9v3h-9zM178 17h3v3h-3zM190 17h3v3h-3zM178 20h3v3h-3zM190 20h3v3h-3zM178 23h15v3h-15zM178 26h3v3h-3zM190 26h3v3h-3zM178 29h3v3h-3zM190 29h3v3h-3zM178 32h3v3h-3zM190 32h3v3h-3zM196 14h3v3h-3zM208 14h3v3h-3zM196 17h6v3h-6zM208 17h3v3h-3zM196 20h3v3h-3zM202 20h3v3h-3zM208 20h3v3h-3zM196 23h3v3h-3zM205 23h6v3h-6zM196 26h3v3h-3zM208 26h3v3h-3zM196 29h3v3h-3zM208 29h3v3h-3zM196 32h3v3h-3zM208 32h3v3h-3zM217 14h12v3h-12zM214 17h3v3h-3zM214 20h3v3h-3zM214 23h3v3h-3zM214 26h3v3h-3zM214 29h3v3h-3zM217 32h12v3h-12zM232 14h15v3h-15zM232 17h3v3h-3zM232 20h3v3h-3zM232 23h12v3h-12zM232 26h3v3h-3zM232 29h3v3h-3zM232 32h15v3h-15zM259 14h15v3h-15zM265 17h3v3h-3zM265 20h3v3h-3zM265 23h3v3h-3zM265 26h3v3h-3zM265 29h3v3h-3zM265 32h3v3h-3zM280 14h9v3h-9zM277 17h3v3h-3zM289 17h3v3h-3zM277 20h3v3h-3zM289 20h3v3h-3zM277 23h15v3h-15zM277 26h3v3h-3zM289 26h3v3h-3zM277 29h3v3h-3zM289 29h3v3h-3zM277 32h3v3h-3zM289 32h3v3h-3zM295 14h12v3h-12zM295 17h3v3h-3zM307 17h3v3h-3zM295 20h3v3h-3zM307 20h3v3h-3zM295 23h12v3h-12zM295 26h3v3h-3zM301 26h3v3h-3zM295 29h3v3h-3zM304 29h3v3h-3zM295 32h3v3h-3zM307 32h3v3h-3zM316 14h12v3h-12zM313 17h3v3h-3zM313 20h3v3h-3zM313 23h3v3h-3zM322 23h6v3h-6zM313 26h3v3h-3zM325 26h3v3h-3zM313 29h3v3h-3zM325 29h3v3h-3zM316 32h9v3h-9zM331 14h15v3h-15zM331 17h3v3h-3zM331 20h3v3h-3zM331 23h12v3h-12zM331 26h3v3h-3zM331 29h3v3h-3zM331 32h15v3h-15zM349 14h15v3h-15zM355 17h3v3h-3zM355 20h3v3h-3zM355 23h3v3h-3zM355 26h3v3h-3zM355 29h3v3h-3zM355 32h3v3h-3zM370 14h12v3h-12zM367 17h3v3h-3zM367 20h3v3h-3zM370 23h9v3h-9zM379 26h3v3h-3zM379 29h3v3h-3zM367 32h12v3h-12z"/><g id="vines"><rect x="0" y="0" width="6" height="6" fill="#4a7a3c"/><rect x="108" y="0" width="6" height="6" fill="#2f5229"/><rect x="132" y="0" width="6" height="6" fill="#4a7a3c"/><rect x="138" y="0" width="6" height="6" fill="#2f5229"/><rect x="150" y="0" width="6" height="6" fill="#2f5229"/><rect x="216" y="0" width="6" height="6" fill="#2f5229"/><rect x="258" y="0" width="6" height="6" fill="#2f5229"/><rect x="288" y="0" width="6" height="6" fill="#2f5229"/><rect x="480" y="0" width="6" height="6" fill="#4a7a3c"/><rect x="486" y="0" width="6" height="6" fill="#2f5229"/><rect x="492" y="0" width="6" height="6" fill="#4a7a3c"/><rect x="582" y="0" width="6" height="6" fill="#4a7a3c"/><rect x="588" y="0" width="6" height="6" fill="#4a7a3c"/><rect x="600" y="0" width="6" height="6" fill="#4a7a3c"/><rect x="642" y="0" width="6" height="6" fill="#2f5229"/><rect x="702" y="0" width="6" height="6" fill="#2f5229"/><rect x="768" y="0" width="6" height="6" fill="#4a7a3c"/><rect x="798" y="0" width="6" height="6" fill="#2f5229"/><rect x="804" y="0" width="6" height="6" fill="#2f5229"/><rect x="828" y="0" width="6" height="6" fill="#2f5229"/><rect x="858" y="0" width="6" height="6" fill="#2f5229"/><rect x="894" y="0" width="6" height="6" fill="#4a7a3c"/><rect x="0" y="6" width="6" height="6" fill="#69a04f"/><rect x="6" y="6" width="6" height="6" fill="#2f5229"/><rect x="132" y="6" width="6" height="6" fill="#2f5229"/><rect x="480" y="6" width="6" height="6" fill="#2f5229"/><rect x="492" y="6" width="6" height="6" fill="#2f5229"/><rect x="582" y="6" width="6" height="6" fill="#2f5229"/><rect x="588" y="6" width="6" height="6" fill="#2f5229"/><rect x="600" y="6" width="6" height="6" fill="#2f5229"/><rect x="768" y="6" width="6" height="6" fill="#2f5229"/><rect x="888" y="6" width="6" height="6" fill="#69a04f"/><rect x="894" y="6" width="6" height="6" fill="#69a04f"/><rect x="0" y="12" width="6" height="6" fill="#4a7a3c"/><rect x="6" y="12" width="6" height="6" fill="#2f5229"/><rect x="888" y="12" width="6" height="6" fill="#4a7a3c"/><rect x="894" y="12" width="6" height="6" fill="#4a7a3c"/><rect x="0" y="18" width="6" height="6" fill="#4a7a3c"/><rect x="6" y="18" width="6" height="6" fill="#4a7a3c"/><rect x="888" y="18" width="6" height="6" fill="#69a04f"/><rect x="894" y="18" width="6" height="6" fill="#4a7a3c"/><rect x="0" y="24" width="6" height="6" fill="#2f5229"/><rect x="888" y="24" width="6" height="6" fill="#69a04f"/><rect x="894" y="24" width="6" height="6" fill="#69a04f"/><rect x="846" y="28" width="6" height="6" fill="#4a7a3c"/><rect x="852" y="28" width="6" height="6" fill="#69a04f"/><rect x="0" y="30" width="6" height="6" fill="#2f5229"/><rect x="894" y="30" width="6" height="6" fill="#2f5229"/><rect x="6" y="34" width="6" height="6" fill="#69a04f"/><rect x="846" y="34" width="6" height="6" fill="#4a7a3c"/><rect x="852" y="34" width="6" height="6" fill="#4a7a3c"/><rect x="0" y="40" width="6" height="6" fill="#4a7a3c"/><rect x="6" y="40" width="6" height="6" fill="#4a7a3c"/><rect x="12" y="40" width="6" height="6" fill="#2f5229"/><rect x="840" y="40" width="6" height="6" fill="#69a04f"/><rect x="846" y="40" width="6" height="6" fill="#4a7a3c"/><rect x="852" y="40" width="6" height="6" fill="#69a04f"/><rect x="858" y="40" width="6" height="6" fill="#2f5229"/><rect x="0" y="46" width="6" height="6" fill="#2f5229"/><rect x="6" y="46" width="6" height="6" fill="#2f5229"/><rect x="12" y="46" width="6" height="6" fill="#2f5229"/><rect x="840" y="46" width="6" height="6" fill="#2f5229"/><rect x="846" y="46" width="6" height="6" fill="#2f5229"/><rect x="852" y="46" width="6" height="6" fill="#2f5229"/><rect x="858" y="46" width="6" height="6" fill="#2f5229"/></g></svg>